<svg id="visual" viewBox="0 0 900 600" width="900" height="600" xmlns="http://www.w3.org/2000/svg" xmlns:xlink="http://www.w3.org/1999/xlink" version="1.1"><rect x="0" y="0" width="900" height="600" fill="#e61ab7"></rect><defs><linearGradient id="grad1_0" x1="33.3%" y1="0%" x2="100%" y2="100%"><stop offset="20%" stop-color="#e61ab7" stop-opacity="1"></stop><stop offset="80%" stop-color="#e61ab7" stop-opacity="1"></stop></linearGradient></defs><defs><linearGradient id="grad2_0" x1="0%" y1="0%" x2="66.7%" y2="100%"><stop offset="20%" stop-color="#e61ab7" stop-opacity="1"></stop><stop offset="80%" stop-color="#e61ab7" stop-opacity="1"></stop></linearGradient></defs><g transform="translate(900, 0)"><path d="M0 270.4C-32.1 261.5 -64.2 252.6 -100.3 242.1C-136.4 231.5 -176.5 219.3 -191.2 191.2C-205.9 163.1 -195.2 119.1 -204.2 84.6C-213.1 50.1 -241.8 25 -270.4 0L0 0Z" fill="#faa7fb"></path></g><g transform="translate(0, 600)"><path d="M0 -270.4C38.5 -267.3 77 -264.1 100.6 -243C124.3 -221.8 133.1 -182.7 159.1 -159.1C185.1 -135.5 228.4 -127.4 249.8 -103.5C271.3 -79.6 270.8 -39.8 270.4 0L0 0Z" fill="#faa7fb"></path></g></svg>